<svg id="visual" viewBox="0 0 960 540" width="960" height="540" xmlns="http://www.w3.org/2000/svg" xmlns:xlink="http://www.w3.org/1999/xlink" version="1.1"><rect x="0" y="0" width="960" height="540" fill="#F3DAC9"></rect><defs><linearGradient id="grad1_0" x1="43.8%" y1="0%" x2="100%" y2="100%"><stop offset="14.444444444444446%" stop-color="#f3dac9" stop-opacity="1"></stop><stop offset="85.55555555555554%" stop-color="#f3dac9" stop-opacity="1"></stop></linearGradient></defs><defs><linearGradient id="grad2_0" x1="0%" y1="0%" x2="56.3%" y2="100%"><stop offset="14.444444444444446%" stop-color="#f3dac9" stop-opacity="1"></stop><stop offset="85.55555555555554%" stop-color="#f3dac9" stop-opacity="1"></stop></linearGradient></defs><g transform="translate(960, 0)"><path d="M0 378C-16.3 348.7 -32.7 319.5 -57 323C-81.2 326.5 -113.5 362.9 -129.3 355.2C-145.1 347.5 -144.5 295.9 -159 275.4C-173.5 254.9 -202.9 265.4 -210.8 251.3C-218.7 237.1 -205 198.3 -219.1 183.8C-233.2 169.4 -275 179.4 -299.6 173C-324.3 166.6 -331.7 143.6 -336.4 122.4C-341.1 101.2 -343.1 81.8 -349.6 61.6C-356.1 41.5 -367 20.8 -378 0L0 0Z" fill="#F05754"></path></g><g transform="translate(0, 540)"><path d="M0 -378C24.3 -383.5 48.5 -388.9 65.5 -371.3C82.4 -353.6 92 -312.9 106.7 -293.2C121.4 -273.5 141.2 -274.8 152 -263.3C162.8 -251.8 164.6 -227.5 188.3 -224.5C212.1 -221.4 257.7 -239.4 273.5 -229.5C289.3 -219.5 275.2 -181.5 271.1 -156.5C267 -131.5 272.9 -119.4 295.1 -107.4C317.3 -95.4 355.7 -83.5 372.3 -65.6C388.8 -47.8 383.4 -23.9 378 0L0 0Z" fill="#F05754"></path></g></svg>